<svg width="1842" height="714" viewBox="0 0 1842 714" fill="none" xmlns="http://www.w3.org/2000/svg">
<g clip-path="url(#clip0_1054_2)">
<path d="M662.402 54H472.802V86.4H628.802V636H282.002V526.8H446.402V352.8V350.4H282.002V240H446.402V54H44.4023V669.6H78.0023V85.2H414.002V207.6H248.402V382.8H414.002V494.4H248.402V668.4H662.402V54Z" fill="black"/>
<path d="M106.157 657.777C105.698 658.596 105.131 659.306 104.372 659.822C103.411 660.457 102.174 660.774 100.658 660.774C99.562 660.774 98.6123 660.544 97.8065 660.083C97.0197 659.602 96.3576 658.94 95.8204 658.094C95.3022 657.231 94.9173 656.242 94.6677 655.131C94.4181 654.014 94.2933 652.817 94.2933 651.529V650.926C94.2933 649.6 94.4265 648.371 94.6973 647.24C94.9659 646.089 95.3593 645.091 95.8775 644.245C96.4147 643.401 97.0768 642.739 97.8636 642.259C98.6694 641.759 99.6212 641.51 100.715 641.51C101.846 641.51 102.826 641.702 103.653 642.083C104.477 642.47 105.15 643.007 105.668 643.699C105.85 643.942 106.002 644.228 106.157 644.509V657.777ZM106.622 638.629C105.829 637.622 104.926 636.757 103.824 636.154C102.424 635.387 100.685 635.002 98.6123 635.002C96.6537 635.002 94.8982 635.387 93.3436 636.154C91.789 636.92 90.4629 638.005 89.3694 639.407C88.2949 640.808 87.4594 642.489 86.8651 644.448C86.2877 646.385 86 648.547 86 650.926V651.529C86 653.796 86.2877 655.886 86.8651 657.807C87.4594 659.727 88.3033 661.398 89.399 662.817C90.4925 664.237 91.8081 665.341 93.3436 666.13C94.8982 666.916 96.6347 667.31 98.5552 667.31C100.476 667.31 102.126 666.925 103.507 666.159C104.526 665.601 105.381 664.822 106.157 663.94V665.755C106.157 667.234 105.878 668.492 105.321 669.526C104.765 670.582 103.97 671.379 102.933 671.917C101.895 672.475 100.628 672.752 99.1305 672.752C97.595 672.752 96.1927 672.435 94.9278 671.802C93.6588 671.187 92.5462 670.326 91.586 669.211L87.929 674.106C88.8131 675.22 89.9066 676.14 91.2116 676.87C92.5357 677.6 93.9189 678.137 95.3593 678.482C96.8187 678.829 98.1999 679 99.5049 679C102.481 679 105.091 678.482 107.337 677.448C109.583 676.43 111.33 674.92 112.578 672.925C113.845 670.95 114.48 668.539 114.48 665.696V635.579H106.963L106.622 638.629Z" fill="black"/>
<path d="M137.3 635.002C135.841 635.002 134.546 635.348 133.412 636.038C132.279 636.73 131.321 637.709 130.534 638.976C130.443 639.124 130.379 639.306 130.295 639.462L130.014 635.579H122.211V666.734H130.504V646.262C130.779 645.63 131.118 645.057 131.57 644.591C132.146 644.016 132.856 643.583 133.7 643.297C134.563 642.988 135.583 642.834 136.752 642.834C137.213 642.834 137.721 642.865 138.279 642.923C138.855 642.959 139.345 643.009 139.747 643.064L139.891 635.376C139.584 635.262 139.191 635.177 138.711 635.118C138.231 635.04 137.761 635.002 137.3 635.002Z" fill="black"/>
<path d="M164.096 651.473C164.096 652.78 163.971 653.996 163.721 655.13C163.491 656.261 163.127 657.26 162.626 658.127C162.129 658.969 161.467 659.633 160.64 660.111C159.815 660.591 158.825 660.832 157.674 660.832C156.483 660.832 155.477 660.591 154.65 660.111C153.825 659.633 153.154 658.969 152.636 658.127C152.135 657.26 151.771 656.261 151.54 655.13C151.31 653.996 151.196 652.78 151.196 651.473V650.868C151.196 649.601 151.31 648.41 151.54 647.297C151.771 646.164 152.135 645.165 152.636 644.303C153.154 643.418 153.816 642.729 154.622 642.228C155.447 641.731 156.445 641.481 157.617 641.481C158.787 641.481 159.785 641.731 160.612 642.228C161.437 642.729 162.099 643.418 162.598 644.303C163.116 645.165 163.491 646.164 163.721 647.297C163.971 648.41 164.096 649.601 164.096 650.868V651.473ZM168.558 639.522C167.311 638.101 165.764 636.999 163.922 636.21C162.08 635.406 159.978 635 157.617 635C155.255 635 153.163 635.406 151.339 636.21C149.514 636.999 147.981 638.101 146.733 639.522C145.485 640.946 144.533 642.623 143.882 644.561C143.228 646.483 142.902 648.583 142.902 650.868V651.473C142.902 653.738 143.228 655.84 143.882 657.78C144.533 659.698 145.485 661.378 146.733 662.818C148 664.237 149.544 665.341 151.367 666.13C153.211 666.917 155.314 667.311 157.674 667.311C160.035 667.311 162.129 666.917 163.952 666.13C165.775 665.341 167.311 664.237 168.558 662.818C169.825 661.378 170.786 659.698 171.439 657.78C172.091 655.84 172.419 653.738 172.419 651.473V650.868C172.419 648.583 172.091 646.483 171.439 644.561C170.786 642.623 169.825 640.946 168.558 639.522Z" fill="black"/>
<path d="M197.223 657.471C196.804 658.383 196.233 659.167 195.408 659.736C194.431 660.426 193.086 660.773 191.377 660.773C190.706 660.773 190.091 660.688 189.534 660.513C188.997 660.341 188.528 660.052 188.124 659.652C187.72 659.248 187.405 658.73 187.172 658.095C186.963 657.463 186.857 656.686 186.857 655.762V635.578H178.563V655.707C178.563 657.78 178.813 659.554 179.312 661.031C179.83 662.49 180.541 663.692 181.442 664.633C182.364 665.553 183.458 666.234 184.725 666.676C186.011 667.101 187.413 667.311 188.93 667.311C190.907 667.311 192.625 666.955 194.084 666.247C195.446 665.566 196.569 664.616 197.498 663.448L197.714 666.733H205.516V635.578H197.223V657.471Z" fill="black"/>
<path d="M232.83 651.413C232.83 652.721 232.724 653.941 232.512 655.07C232.322 656.202 231.986 657.203 231.506 658.068C231.044 658.928 230.44 659.612 229.691 660.111C228.942 660.591 228.022 660.832 226.926 660.832C225.429 660.832 224.221 660.504 223.299 659.853C222.472 659.265 221.867 658.467 221.427 657.509V644.69C221.605 644.313 221.801 643.958 222.032 643.64C222.531 642.949 223.174 642.422 223.961 642.056C224.767 641.692 225.738 641.508 226.869 641.508C227.944 641.508 228.855 641.747 229.606 642.228C230.372 642.689 230.987 643.342 231.448 644.186C231.929 645.032 232.273 646.018 232.485 647.154C232.715 648.264 232.83 649.487 232.83 650.809V651.413ZM238.014 639.349C236.996 637.949 235.729 636.872 234.213 636.123C232.715 635.375 230.977 635 229.001 635C227.119 635 225.478 635.385 224.075 636.155C222.944 636.781 221.99 637.678 221.142 638.733L220.822 635.578H213.134V678.711H221.427V663.926C222.216 664.815 223.081 665.597 224.105 666.16C225.507 666.923 227.157 667.311 229.058 667.311C231.015 667.311 232.743 666.917 234.24 666.128C235.757 665.32 237.024 664.21 238.041 662.788C239.059 661.35 239.828 659.658 240.347 657.721C240.882 655.781 241.152 653.679 241.152 651.413V650.809C241.152 648.448 240.882 646.299 240.347 644.36C239.828 642.422 239.05 640.749 238.014 639.349Z" fill="black"/>
<path d="M749.959 325V233.429H810.589V249.391H769.319V271.211H806.565V287.173H769.319V325H749.959ZM823.612 325V233.429H884.242V249.391H842.972V271.211H880.218V287.173H842.972V325H823.612ZM987.126 263.028C986.5 260.852 985.62 258.93 984.488 257.26C983.355 255.561 981.969 254.131 980.329 252.968C978.72 251.776 976.872 250.867 974.785 250.241C972.728 249.615 970.448 249.302 967.944 249.302C963.264 249.302 959.15 250.464 955.603 252.789C952.086 255.114 949.343 258.497 947.376 262.939C945.409 267.351 944.425 272.746 944.425 279.125C944.425 285.504 945.394 290.929 947.331 295.4C949.269 299.872 952.011 303.285 955.559 305.639C959.106 307.965 963.294 309.127 968.123 309.127C972.505 309.127 976.246 308.352 979.346 306.802C982.476 305.222 984.86 303.001 986.5 300.14C988.169 297.278 989.004 293.895 989.004 289.99L992.938 290.571H969.33V275.995H1007.65V287.531C1007.65 295.579 1005.95 302.495 1002.55 308.277C999.153 314.031 994.473 318.472 988.512 321.602C982.55 324.702 975.724 326.252 968.033 326.252C959.449 326.252 951.907 324.359 945.409 320.573C938.911 316.758 933.843 311.348 930.206 304.343C926.6 297.308 924.796 288.962 924.796 279.304C924.796 271.881 925.869 265.264 928.016 259.451C930.192 253.609 933.232 248.661 937.137 244.607C941.042 240.553 945.588 237.468 950.774 235.351C955.961 233.235 961.58 232.177 967.631 232.177C972.818 232.177 977.647 232.937 982.118 234.457C986.589 235.947 990.554 238.064 994.011 240.806C997.499 243.549 1000.35 246.813 1002.55 250.598C1004.76 254.354 1006.17 258.497 1006.8 263.028H987.126ZM1022.19 325V233.429H1058.32C1065.23 233.429 1071.14 234.666 1076.03 237.14C1080.94 239.584 1084.68 243.057 1087.25 247.558C1089.84 252.029 1091.14 257.29 1091.14 263.341C1091.14 269.422 1089.83 274.654 1087.2 279.035C1084.58 283.387 1080.78 286.726 1075.8 289.051C1070.85 291.376 1064.86 292.539 1057.83 292.539H1033.64V276.979H1054.7C1058.39 276.979 1061.46 276.472 1063.91 275.458C1066.35 274.445 1068.17 272.925 1069.36 270.898C1070.59 268.871 1071.2 266.352 1071.2 263.341C1071.2 260.301 1070.59 257.737 1069.36 255.651C1068.17 253.564 1066.34 251.984 1063.86 250.911C1061.42 249.808 1058.33 249.257 1054.61 249.257H1041.55V325H1022.19ZM1071.64 283.328L1094.4 325H1073.03L1050.76 283.328H1071.64ZM1188.97 279.214C1188.97 289.2 1187.08 297.696 1183.29 304.7C1179.54 311.705 1174.41 317.056 1167.91 320.752C1161.44 324.419 1154.17 326.252 1146.09 326.252C1137.95 326.252 1130.65 324.404 1124.18 320.708C1117.71 317.011 1112.6 311.661 1108.84 304.656C1105.09 297.651 1103.21 289.17 1103.21 279.214C1103.21 269.228 1105.09 260.733 1108.84 253.728C1112.6 246.723 1117.71 241.387 1124.18 237.721C1130.65 234.025 1137.95 232.177 1146.09 232.177C1154.17 232.177 1161.44 234.025 1167.91 237.721C1174.41 241.387 1179.54 246.723 1183.29 253.728C1187.08 260.733 1188.97 269.228 1188.97 279.214ZM1169.34 279.214C1169.34 272.746 1168.37 267.291 1166.43 262.849C1164.53 258.408 1161.83 255.04 1158.34 252.744C1154.85 250.449 1150.77 249.302 1146.09 249.302C1141.41 249.302 1137.33 250.449 1133.84 252.744C1130.35 255.04 1127.64 258.408 1125.7 262.849C1123.79 267.291 1122.84 272.746 1122.84 279.214C1122.84 285.683 1123.79 291.138 1125.7 295.579C1127.64 300.021 1130.35 303.389 1133.84 305.684C1137.33 307.979 1141.41 309.127 1146.09 309.127C1150.77 309.127 1154.85 307.979 1158.34 305.684C1161.83 303.389 1164.53 300.021 1166.43 295.579C1168.37 291.138 1169.34 285.683 1169.34 279.214ZM1259.87 233.429H1279.23V292.896C1279.23 299.573 1277.64 305.416 1274.45 310.424C1271.29 315.432 1266.86 319.336 1261.17 322.138C1255.48 324.911 1248.84 326.297 1241.27 326.297C1233.67 326.297 1227.02 324.911 1221.33 322.138C1215.64 319.336 1211.21 315.432 1208.05 310.424C1204.89 305.416 1203.31 299.573 1203.31 292.896V233.429H1222.67V291.242C1222.67 294.73 1223.43 297.83 1224.95 300.542C1226.5 303.255 1228.68 305.386 1231.48 306.936C1234.28 308.486 1237.55 309.261 1241.27 309.261C1245.03 309.261 1248.29 308.486 1251.06 306.936C1253.87 305.386 1256.03 303.255 1257.55 300.542C1259.1 297.83 1259.87 294.73 1259.87 291.242V233.429ZM1295.16 325V233.429H1331.29C1338.23 233.429 1344.15 234.755 1349.04 237.408C1353.93 240.031 1357.66 243.683 1360.22 248.363C1362.81 253.013 1364.11 258.378 1364.11 264.459C1364.11 270.54 1362.8 275.906 1360.17 280.556C1357.55 285.206 1353.75 288.828 1348.77 291.421C1343.82 294.014 1337.83 295.311 1330.8 295.311H1307.77V279.796H1327.67C1331.39 279.796 1334.46 279.155 1336.88 277.873C1339.32 276.561 1341.14 274.758 1342.33 272.463C1343.56 270.138 1344.17 267.47 1344.17 264.459C1344.17 261.419 1343.56 258.766 1342.33 256.5C1341.14 254.205 1339.32 252.431 1336.88 251.18C1334.43 249.898 1331.33 249.257 1327.58 249.257H1314.52V325H1295.16ZM762.791 487H745.085L777.323 395.429H797.801L830.084 487H812.378L787.92 414.208H787.204L762.791 487ZM763.373 451.096H811.662V464.42H763.373V451.096ZM857.616 446.759V487H841.43V418.321H856.9V429.991H857.705C859.285 426.146 861.804 423.091 865.261 420.825C868.749 418.56 873.056 417.427 878.183 417.427C882.923 417.427 887.051 418.441 890.569 420.468C894.116 422.495 896.858 425.431 898.796 429.276C900.763 433.121 901.732 437.786 901.702 443.271V487H885.516V445.775C885.516 441.184 884.324 437.593 881.939 434.999C879.584 432.406 876.32 431.109 872.147 431.109C869.315 431.109 866.797 431.735 864.591 432.987C862.415 434.209 860.701 435.983 859.449 438.308C858.227 440.633 857.616 443.45 857.616 446.759ZM961.863 487H944.157L976.395 395.429H996.873L1029.16 487H1011.45L986.991 414.208H986.276L961.863 487ZM962.444 451.096H1010.73V464.42H962.444V451.096ZM1053.74 418.321L1067.6 443.673L1081.68 418.321H1098.81L1078.1 452.661L1099.16 487H1082.13L1067.6 462.274L1053.2 487H1036.03L1056.96 452.661L1036.57 418.321H1053.74ZM1111.33 487V418.321H1127.51V487H1111.33ZM1119.46 408.574C1116.9 408.574 1114.69 407.725 1112.85 406.025C1111 404.297 1110.07 402.225 1110.07 399.81C1110.07 397.366 1111 395.294 1112.85 393.595C1114.69 391.867 1116.9 391.002 1119.46 391.002C1122.06 391.002 1124.26 391.867 1126.08 393.595C1127.93 395.294 1128.85 397.366 1128.85 399.81C1128.85 402.225 1127.93 404.297 1126.08 406.025C1124.26 407.725 1122.06 408.574 1119.46 408.574ZM1198.44 436.475L1183.68 438.084C1183.26 436.594 1182.53 435.193 1181.49 433.881C1180.48 432.57 1179.11 431.512 1177.38 430.707C1175.65 429.902 1173.53 429.5 1171.03 429.5C1167.66 429.5 1164.83 430.23 1162.53 431.691C1160.27 433.151 1159.15 435.044 1159.18 437.369C1159.15 439.366 1159.88 440.991 1161.37 442.243C1162.89 443.495 1165.39 444.523 1168.88 445.328L1180.6 447.832C1187.1 449.233 1191.92 451.453 1195.08 454.494C1198.27 457.534 1199.88 461.514 1199.91 466.432C1199.88 470.754 1198.62 474.57 1196.11 477.879C1193.64 481.158 1190.2 483.721 1185.78 485.569C1181.37 487.417 1176.3 488.341 1170.58 488.341C1162.18 488.341 1155.41 486.583 1150.28 483.065C1145.15 479.518 1142.1 474.585 1141.12 468.265L1156.9 466.745C1157.61 469.845 1159.13 472.185 1161.46 473.765C1163.79 475.345 1166.81 476.135 1170.54 476.135C1174.38 476.135 1177.47 475.345 1179.79 473.765C1182.15 472.185 1183.32 470.233 1183.32 467.908C1183.32 465.94 1182.56 464.316 1181.04 463.034C1179.55 461.752 1177.23 460.769 1174.07 460.083L1162.35 457.624C1155.77 456.253 1150.89 453.942 1147.73 450.693C1144.57 447.414 1143.01 443.271 1143.04 438.263C1143.01 434.03 1144.16 430.364 1146.48 427.264C1148.84 424.134 1152.1 421.72 1156.27 420.021C1160.48 418.292 1165.32 417.427 1170.8 417.427C1178.85 417.427 1185.19 419.141 1189.81 422.569C1194.46 425.997 1197.33 430.632 1198.44 436.475ZM1323.59 426.325H1306.87C1306.39 423.583 1305.51 421.153 1304.23 419.037C1302.95 416.891 1301.35 415.072 1299.44 413.582C1297.54 412.091 1295.36 410.974 1292.92 410.228C1290.5 409.453 1287.89 409.066 1285.09 409.066C1280.11 409.066 1275.7 410.318 1271.86 412.822C1268.01 415.296 1265 418.933 1262.82 423.732C1260.65 428.501 1259.56 434.329 1259.56 441.214C1259.56 448.219 1260.65 454.121 1262.82 458.92C1265.03 463.69 1268.04 467.297 1271.86 469.741C1275.7 472.155 1280.1 473.363 1285.05 473.363C1287.79 473.363 1290.35 473.005 1292.74 472.29C1295.15 471.544 1297.31 470.456 1299.22 469.026C1301.16 467.595 1302.78 465.836 1304.09 463.749C1305.43 461.663 1306.36 459.278 1306.87 456.595L1323.59 456.685C1322.96 461.037 1321.61 465.121 1319.52 468.936C1317.46 472.752 1314.76 476.12 1311.43 479.041C1308.09 481.933 1304.18 484.198 1299.71 485.837C1295.24 487.447 1290.28 488.252 1284.82 488.252C1276.77 488.252 1269.59 486.389 1263.27 482.663C1256.95 478.937 1251.97 473.556 1248.34 466.522C1244.7 459.487 1242.88 451.051 1242.88 441.214C1242.88 431.348 1244.71 422.912 1248.38 415.907C1252.05 408.872 1257.04 403.492 1263.36 399.766C1269.68 396.04 1276.83 394.177 1284.82 394.177C1289.92 394.177 1294.66 394.892 1299.04 396.323C1303.42 397.754 1307.33 399.855 1310.76 402.627C1314.18 405.37 1317 408.738 1319.21 412.732C1321.44 416.697 1322.9 421.228 1323.59 426.325ZM1368.02 488.341C1361.31 488.341 1355.5 486.866 1350.58 483.915C1345.66 480.964 1341.85 476.835 1339.14 471.529C1336.45 466.224 1335.11 460.023 1335.11 452.929C1335.11 445.835 1336.45 439.62 1339.14 434.284C1341.85 428.948 1345.66 424.805 1350.58 421.854C1355.5 418.903 1361.31 417.427 1368.02 417.427C1374.73 417.427 1380.54 418.903 1385.46 421.854C1390.38 424.805 1394.18 428.948 1396.86 434.284C1399.57 439.62 1400.93 445.835 1400.93 452.929C1400.93 460.023 1399.57 466.224 1396.86 471.529C1394.18 476.835 1390.38 480.964 1385.46 483.915C1380.54 486.866 1374.73 488.341 1368.02 488.341ZM1368.11 475.375C1371.75 475.375 1374.79 474.376 1377.23 472.379C1379.68 470.352 1381.49 467.639 1382.69 464.241C1383.91 460.843 1384.52 457.057 1384.52 452.884C1384.52 448.681 1383.91 444.881 1382.69 441.483C1381.49 438.055 1379.68 435.327 1377.23 433.3C1374.79 431.273 1371.75 430.26 1368.11 430.26C1364.38 430.26 1361.28 431.273 1358.81 433.3C1356.37 435.327 1354.53 438.055 1353.31 441.483C1352.12 444.881 1351.52 448.681 1351.52 452.884C1351.52 457.057 1352.12 460.843 1353.31 464.241C1354.53 467.639 1356.37 470.352 1358.81 472.379C1361.28 474.376 1364.38 475.375 1368.11 475.375ZM1414.67 487V418.321H1430.14V429.991H1430.94C1432.37 426.057 1434.74 422.986 1438.05 420.781C1441.36 418.545 1445.31 417.427 1449.9 417.427C1454.55 417.427 1458.47 418.56 1461.66 420.825C1464.88 423.061 1467.15 426.116 1468.46 429.991H1469.17C1470.69 426.176 1473.26 423.136 1476.86 420.87C1480.5 418.575 1484.81 417.427 1489.78 417.427C1496.1 417.427 1501.26 419.424 1505.26 423.419C1509.25 427.413 1511.25 433.241 1511.25 440.901V487H1495.02V443.405C1495.02 439.143 1493.88 436.028 1491.62 434.06C1489.35 432.063 1486.58 431.065 1483.3 431.065C1479.4 431.065 1476.34 432.287 1474.14 434.731C1471.96 437.145 1470.87 440.29 1470.87 444.165V487H1455V442.735C1455 439.187 1453.93 436.356 1451.78 434.239C1449.66 432.123 1446.89 431.065 1443.46 431.065C1441.14 431.065 1439.02 431.661 1437.11 432.853C1435.21 434.016 1433.69 435.67 1432.55 437.816C1431.42 439.933 1430.85 442.407 1430.85 445.238V487H1414.67ZM1527.67 512.754V418.321H1543.58V429.678H1544.52C1545.36 428.009 1546.54 426.236 1548.06 424.358C1549.58 422.45 1551.63 420.825 1554.23 419.484C1556.82 418.113 1560.13 417.427 1564.15 417.427C1569.46 417.427 1574.24 418.783 1578.51 421.496C1582.8 424.179 1586.2 428.158 1588.7 433.434C1591.23 438.681 1592.5 445.119 1592.5 452.75C1592.5 460.292 1591.26 466.7 1588.79 471.977C1586.32 477.253 1582.95 481.277 1578.68 484.049C1574.42 486.821 1569.59 488.207 1564.2 488.207C1560.26 488.207 1557 487.551 1554.41 486.24C1551.81 484.928 1549.73 483.348 1548.15 481.5C1546.6 479.622 1545.39 477.849 1544.52 476.18H1543.85V512.754H1527.67ZM1543.54 452.661C1543.54 457.102 1544.17 460.992 1545.42 464.331C1546.7 467.669 1548.53 470.277 1550.92 472.155C1553.33 474.004 1556.25 474.928 1559.68 474.928C1563.26 474.928 1566.25 473.974 1568.67 472.066C1571.08 470.128 1572.9 467.49 1574.12 464.152C1575.38 460.784 1576 456.953 1576 452.661C1576 448.398 1575.39 444.612 1574.17 441.304C1572.95 437.995 1571.13 435.402 1568.71 433.524C1566.3 431.646 1563.29 430.707 1559.68 430.707C1556.22 430.707 1553.29 431.616 1550.87 433.434C1548.46 435.253 1546.63 437.801 1545.37 441.08C1544.15 444.359 1543.54 448.219 1543.54 452.661ZM1626.12 488.386C1621.77 488.386 1617.85 487.611 1614.37 486.061C1610.91 484.481 1608.16 482.156 1606.14 479.086C1604.14 476.016 1603.14 472.23 1603.14 467.729C1603.14 463.854 1603.86 460.649 1605.29 458.116C1606.72 455.582 1608.67 453.555 1611.15 452.035C1613.62 450.515 1616.41 449.367 1619.51 448.592C1622.64 447.787 1625.87 447.206 1629.21 446.848C1633.23 446.431 1636.5 446.058 1639 445.73C1641.51 445.373 1643.32 444.836 1644.46 444.121C1645.62 443.375 1646.2 442.228 1646.2 440.678V440.409C1646.2 437.041 1645.2 434.433 1643.2 432.585C1641.21 430.737 1638.33 429.813 1634.58 429.813C1630.61 429.813 1627.47 430.677 1625.14 432.406C1622.85 434.135 1621.3 436.177 1620.49 438.532L1605.38 436.385C1606.57 432.212 1608.54 428.725 1611.28 425.923C1614.02 423.091 1617.38 420.974 1621.34 419.573C1625.3 418.143 1629.69 417.427 1634.49 417.427C1637.79 417.427 1641.09 417.815 1644.37 418.59C1647.65 419.365 1650.64 420.647 1653.35 422.435C1656.07 424.194 1658.24 426.593 1659.88 429.634C1661.55 432.674 1662.39 436.475 1662.39 441.035V487H1646.83V477.566H1646.29C1645.31 479.473 1643.92 481.262 1642.13 482.931C1640.37 484.571 1638.15 485.897 1635.47 486.911C1632.82 487.894 1629.7 488.386 1626.12 488.386ZM1630.33 476.493C1633.58 476.493 1636.39 475.852 1638.78 474.57C1641.16 473.258 1643 471.529 1644.28 469.383C1645.59 467.237 1646.25 464.897 1646.25 462.363V454.27C1645.74 454.688 1644.87 455.075 1643.65 455.433C1642.46 455.791 1641.12 456.104 1639.63 456.372C1638.14 456.64 1636.66 456.879 1635.2 457.087C1633.74 457.296 1632.47 457.475 1631.4 457.624C1628.99 457.952 1626.82 458.488 1624.92 459.233C1623.01 459.979 1621.5 461.022 1620.4 462.363C1619.3 463.675 1618.75 465.374 1618.75 467.461C1618.75 470.441 1619.83 472.692 1622.01 474.212C1624.19 475.732 1626.96 476.493 1630.33 476.493ZM1694.85 446.759V487H1678.66V418.321H1694.13V429.991H1694.94C1696.52 426.146 1699.04 423.091 1702.49 420.825C1705.98 418.56 1710.29 417.427 1715.42 417.427C1720.16 417.427 1724.28 418.441 1727.8 420.468C1731.35 422.495 1734.09 425.431 1736.03 429.276C1738 433.121 1738.96 437.786 1738.93 443.271V487H1722.75V445.775C1722.75 441.184 1721.56 437.593 1719.17 434.999C1716.82 432.406 1713.55 431.109 1709.38 431.109C1706.55 431.109 1704.03 431.735 1701.82 432.987C1699.65 434.209 1697.93 435.983 1696.68 438.308C1695.46 440.633 1694.85 443.45 1694.85 446.759ZM1762.99 512.754C1760.78 512.754 1758.74 512.576 1756.86 512.218C1755.02 511.89 1753.54 511.503 1752.44 511.055L1756.19 498.446C1758.55 499.132 1760.65 499.46 1762.5 499.43C1764.35 499.4 1765.97 498.819 1767.37 497.686C1768.8 496.583 1770.01 494.735 1770.99 492.142L1772.38 488.431L1747.47 418.321H1764.64L1780.47 470.188H1781.19L1797.06 418.321H1814.28L1786.78 495.317C1785.5 498.953 1783.8 502.068 1781.68 504.661C1779.56 507.285 1776.97 509.282 1773.9 510.653C1770.86 512.054 1767.22 512.754 1762.99 512.754Z" fill="black"/>
</g>
<defs>
<clipPath id="clip0_1054_2">
<rect width="1842" height="714" fill="white"/>
</clipPath>
</defs>
</svg>
